<?xml version="1.0" encoding="utf-8"?>
<!-- Generator: Adobe Illustrator 24.0.3, SVG Export Plug-In . SVG Version: 6.00 Build 0)  -->
<svg version="1.1" id="Layer_1" xmlns="http://www.w3.org/2000/svg" xmlns:xlink="http://www.w3.org/1999/xlink" x="0px" y="0px"
	 viewBox="0 0 1366 208.5" style="enable-background:new 0 0 1366 208.5;" xml:space="preserve">
<style type="text/css">
	.st0{fill:#111111;}
	.st1{fill:#ECECEC;}
</style>
<title>digitalby</title>
<path class="st0" d="M18.9,198.6V9.9h73.5c12.5-0.1,24.9,2.6,36.3,7.8c11,5,21,12,29.5,20.6c8.5,8.7,15.2,18.8,19.9,30
	c9.6,22.9,9.7,48.7,0.1,71.6c-4.6,11.2-11.3,21.4-19.8,30.1c-8.5,8.7-18.5,15.7-29.5,20.7c-11.5,5.2-23.9,7.9-36.5,7.8L18.9,198.6
	L18.9,198.6z M80.6,150.8c7,0.1,13.9-1.1,20.4-3.5c5.6-2.1,10.6-5.4,14.8-9.6c4-4.2,7.2-9.1,9.2-14.5c2.2-6,3.3-12.4,3.2-18.8
	c0.1-6.4-1.1-12.7-3.3-18.7c-4.1-11.2-12.9-20.1-24.1-24.3c-6.4-2.5-13.2-3.7-20.1-3.5h-6.8V151L80.6,150.8z"/>
<path class="st1" d="M92.4,13.9c11.9-0.1,23.8,2.5,34.6,7.4c10.6,4.8,20.2,11.5,28.3,19.8s14.5,18.1,19,28.8
	c9.2,21.9,9.3,46.6,0.1,68.5c-4.4,10.7-10.8,20.5-18.9,28.9c-8.1,8.3-17.7,15.1-28.3,19.9c-10.9,5-22.8,7.5-34.9,7.4H22.9V13.9H92.4
	 M69.8,154.8h10.8c7.5,0.1,14.9-1.2,21.8-3.8c6.1-2.4,11.6-6,16.2-10.6c4.4-4.5,7.9-10,10.1-15.9c2.4-6.5,3.6-13.3,3.5-20.2
	c0.1-6.9-1.2-13.7-3.6-20.1c-4.5-12.3-14.1-22-26.4-26.6c-6.9-2.6-14.2-4-21.6-3.8H69.8V154.8 M92.4,5.9H14.9v196.7h77.5
	c13.2,0.1,26.2-2.7,38.2-8.2c11.5-5.2,21.9-12.6,30.7-21.6c8.8-9.1,15.8-19.7,20.6-31.4c10-23.9,9.9-50.9-0.1-74.7
	c-4.9-11.6-11.9-22.2-20.7-31.2S141.9,19.3,130.4,14C118.4,8.6,105.4,5.8,92.4,5.9L92.4,5.9z M77.8,61.7h2.8
	c6.4-0.1,12.7,1,18.6,3.3c10.2,3.8,18.1,11.9,21.9,22c2.1,5.5,3.1,11.4,3.1,17.3c0.1,5.9-1,11.8-3,17.4c-1.8,4.9-4.6,9.4-8.3,13.1
	c-3.8,3.8-8.4,6.8-13.4,8.7c-6,2.3-12.4,3.4-18.8,3.3h-2.8L77.8,61.7L77.8,61.7z"/>
<rect x="207.3" y="9.9" class="st0" width="55" height="188.7"/>
<path class="st1" d="M258.2,13.9v180.7h-47V13.9H258.2 M266.2,5.9h-63v196.7h63V5.9z"/>
<path class="st0" d="M382.6,203.7c-13.7,0.2-27.2-2.3-40-7.2c-11.7-4.6-22.3-11.5-31.2-20.4c-8.8-9-15.8-19.8-20.3-31.6
	c-9.6-26-9.6-54.5-0.1-80.6c4.5-11.8,11.4-22.5,20.3-31.4c9.1-8.9,19.8-15.8,31.7-20.3C355.2,7.4,369,5,384,5
	c19.5,0,36.8,4.3,51.6,12.8s26.8,21.8,35.4,39.6l1.9,3.8l-52.2,21.6l-1.5-3.7c-3.8-9.1-8.8-15.7-14.7-19.5
	c-6.1-3.9-13.2-5.9-20.5-5.8c-6-0.1-12,1.1-17.5,3.6c-5.2,2.3-9.7,5.8-13.3,10.2c-3.9,4.8-6.9,10.4-8.9,16.3
	c-2.3,7-3.4,14.3-3.3,21.7c-0.1,6.8,0.9,13.6,2.8,20.2c1.7,5.7,4.5,11,8.2,15.6c3.6,4.3,8.2,7.8,13.4,10.1c6,2.5,12.5,3.7,19,3.6
	c4.2,0,8.4-0.5,12.4-1.4c3.7-0.9,7.2-2.4,10.3-4.5c3-2,5.5-4.7,7.3-7.8c1.4-2.3,2.4-4.8,3.1-7.3h-37.6V89.5h101.2v4
	c0,8.9-0.4,17.7-1.2,26.5c-0.7,7.8-2.4,15.4-5,22.8c-3.3,9.5-8.1,18.3-14.3,26.2c-5.9,7.5-13.1,14-21.3,19.1
	c-8.2,5.1-17.2,9.1-26.5,11.6C403.1,202.4,392.9,203.7,382.6,203.7z"/>
<path class="st1" d="M384.1,8.9c18.9,0,35.4,4.1,49.6,12.2s25.5,20.8,33.8,37.9l-44.6,18.5c-4.2-9.9-9.6-17-16.2-21.3
	c-6.7-4.3-14.6-6.6-22.6-6.5c-6.6-0.1-13.1,1.3-19.2,4c-5.7,2.6-10.7,6.5-14.7,11.3c-4.3,5.2-7.5,11.2-9.6,17.6
	c-2.4,7.4-3.6,15.2-3.5,23c-0.1,7.2,0.9,14.4,3,21.3c1.8,6.2,4.9,12,9,17c4,4.8,9.1,8.6,14.9,11.1c6.5,2.8,13.5,4.1,20.6,4
	c4.5,0,9-0.5,13.4-1.5c4.1-1,8.1-2.6,11.6-5c3.5-2.3,6.4-5.4,8.5-9c2.4-4.1,3.9-8.7,4.5-13.4H384V93.5h93.2c0,8.7-0.4,17.4-1.2,26.1
	c-0.7,7.4-2.3,14.8-4.8,21.8c-3.1,9-7.8,17.5-13.7,25c-5.7,7.2-12.5,13.4-20.2,18.2c-7.9,4.9-16.5,8.7-25.5,11.1
	c-9.5,2.6-19.4,3.9-29.2,3.8c-13.1,0.2-26.2-2.2-38.5-7c-11.2-4.4-21.4-11-29.8-19.5c-8.5-8.6-15.1-18.9-19.4-30.2
	c-9.2-25.1-9.3-52.6-0.1-77.7c4.3-11.3,10.9-21.6,19.4-30.1c8.7-8.5,19-15.1,30.3-19.4C356.4,11.2,369.5,8.8,384.1,8.9 M384.1,0.8
	c-15.5,0-29.8,2.5-42.5,7.5c-12.3,4.7-23.6,11.9-33,21.2c-9.3,9.3-16.6,20.6-21.3,32.9c-9.9,27-9.8,56.6,0.1,83.5
	c4.7,12.3,12,23.5,21.2,32.9c9.3,9.3,20.3,16.5,32.5,21.3c13.2,5.1,27.3,7.7,41.4,7.5c10.6,0,21.1-1.3,31.4-4.1
	c9.8-2.7,19.1-6.8,27.7-12.1c8.5-5.3,16-12.1,22.3-20c6.4-8.2,11.5-17.5,14.9-27.3c2.7-7.7,4.4-15.6,5.2-23.7
	c0.9-9,1.3-17.9,1.2-26.9v-8h-61l1.6-0.7l44.6-18.5l7.9-3.2l-3.7-7.6c-9-18.5-21.4-32.4-37-41.3C422.3,5.3,404.2,0.9,384.1,0.8
	L384.1,0.8z M384.6,150.9c-6,0.1-11.9-1-17.4-3.3c-4.7-2-8.8-5.1-12-9c-3.4-4.2-6-9-7.5-14.2c-1.8-6.2-2.7-12.6-2.6-19
	c-0.1-6.9,0.9-13.8,3.1-20.5c1.8-5.5,4.5-10.5,8.1-15c3.2-3.9,7.3-7,11.9-9.1c5-2.2,10.4-3.3,15.8-3.2c6.5-0.1,12.8,1.7,18.3,5.2
	c5.2,3.4,9.7,9.4,13.2,17.7l2.1,5h-41.5v52.4H412c-0.2,0.4-0.5,0.9-0.7,1.3c-1.5,2.6-3.6,4.8-6.1,6.5c-2.7,1.8-5.8,3.1-9,3.9
	C392.4,150.5,388.5,150.9,384.6,150.9L384.6,150.9z"/>
<rect x="503" y="9.9" class="st0" width="55" height="188.7"/>
<path class="st1" d="M554,13.9v180.7h-47V13.9H554 M562,5.9h-63v196.7h63V5.9z"/>
<polygon class="st0" points="609.5,198.6 609.5,57.7 570.9,57.7 570.9,9.9 703,9.9 703,57.7 664.4,57.7 664.4,198.6 "/>
<path class="st1" d="M699,13.9v39.8h-38.6v140.9h-47V53.7h-38.6V13.9H699 M707,5.9H566.9v55.8h38.6v140.9h63V61.7H707V5.9z"/>
<path class="st0" d="M830.2,198.6l-10.8-31.4H758l-10.8,31.4h-58.8L760.3,9.9h56.8l71.8,188.7H830.2z M804.2,123.5l-15.5-44.1
	l-15.5,44.1H804.2z"/>
<path class="st1" d="M814.3,13.9l68.8,180.7H833l-10.8-31.4h-67.1l-10.8,31.4h-50.1L763,13.9H814.3 M767.6,127.5h42.2l-21.1-60.2
	L767.6,127.5 M819.8,5.9h-62.3l-2,5.2l-68.8,180.7l-4.1,10.9H750l1.9-5.4l8.9-26h55.7l8.9,26l1.9,5.4h67.4l-4.1-10.9L821.8,11.1
	L819.8,5.9L819.8,5.9z M778.8,119.5l9.8-28l9.8,28H778.8z"/>
<polygon class="st0" points="899.7,198.6 899.7,9.9 954.7,9.9 954.7,150.8 1011,150.8 1011,198.6 "/>
<path class="st1" d="M950.7,13.9v140.9h56.3v39.8H903.7V13.9H950.7 M958.7,5.9h-63v196.7H1015v-55.8h-56.3V5.9L958.7,5.9z"/>
<path class="st0" d="M1027.2,198.6V9.9h74c17.6,0,31.2,4.4,40.6,13s14.2,21.4,14.2,37.5c0,9.7-1.8,18-5.4,24.6
	c-2.4,4.3-5.6,8.2-9.3,11.5c3.4,1.1,6.7,2.5,9.9,4.2c5,2.7,9.3,6.3,12.8,10.7c3.3,4.3,5.6,9.2,7,14.4c1.4,5.4,2,10.9,2,16.4
	c0.1,8.3-1.5,16.5-4.8,24.2c-3.1,7-7.7,13.1-13.5,18c-6.2,5-13.3,8.7-21,10.8c-8.8,2.4-17.9,3.6-27,3.5L1027.2,198.6z M1088.5,154.2
	c11,0,18.9-1.4,23.4-4c3.9-2.3,5.7-5.9,5.7-11.2s-1.8-8.9-5.7-11.2c-4.5-2.6-12.3-4-23.4-4h-6.3v30.4H1088.5z M1086.8,80.8
	c16,0,18.1-7.2,18.1-13.5s-2.1-13.5-18.1-13.5h-4.6v27H1086.8z"/>
<path class="st1" d="M1101.2,13.9c16.6,0,29.2,4,37.9,12c8.6,8,12.9,19.5,12.9,34.5c0,9.1-1.6,16.7-4.9,22.6
	c-3.6,6.3-8.8,11.5-15,15.2c6,1,11.8,3,17.1,5.9c4.5,2.4,8.4,5.7,11.5,9.7c3,3.8,5.1,8.3,6.3,13c1.3,5,2,10.2,1.9,15.3
	c0.1,7.7-1.4,15.4-4.4,22.5c-2.8,6.4-7.1,12.1-12.5,16.5c-5.7,4.7-12.4,8.1-19.5,10.1c-8.4,2.3-17.1,3.5-25.9,3.4h-75.5V13.9H1101.2
	 M1078.2,84.8h8.6c14.7,0,22.1-5.8,22.1-17.5s-7.4-17.5-22.1-17.5h-8.6V84.8 M1078.2,158.2h10.3c11.8,0,20.3-1.5,25.4-4.6
	c5.1-3,7.7-7.9,7.7-14.6c0-6.7-2.6-11.6-7.7-14.6s-13.6-4.6-25.4-4.6h-10.3V158.2 M1101.2,5.9h-78v196.7h83.5
	c9.5,0.1,19-1.1,28.1-3.7c8.2-2.3,15.8-6.2,22.4-11.6c6.3-5.3,11.3-11.9,14.6-19.4c3.5-8.1,5.3-16.9,5.1-25.8
	c0-5.9-0.7-11.7-2.2-17.4s-4.1-11.1-7.7-15.8c-3.8-4.8-8.5-8.9-13.9-11.8c-1.5-0.8-3-1.6-4.6-2.3c2.1-2.5,4-5.1,5.6-8
	c3.9-7.2,5.9-16.1,5.9-26.5c0-17.3-5.2-30.9-15.5-40.4C1134.4,10.6,1119.8,5.9,1101.2,5.9L1101.2,5.9z M1086.2,57.9h0.6
	c14.1,0,14.1,5.7,14.1,9.5c0,3.8,0,9.5-14.1,9.5h-0.6V57.9L1086.2,57.9z M1086.2,127.9h2.3c13.5,0,19.2,2.2,21.3,3.4
	c1.8,1.1,3.8,2.9,3.8,7.7s-1.9,6.6-3.8,7.7c-2.2,1.3-7.8,3.4-21.3,3.4h-2.3V127.9L1086.2,127.9z"/>
<polygon class="st0" points="1225.9,198.6 1225.9,109.1 1156.3,9.9 1222.2,9.9 1253.7,56.1 1284.9,9.9 1350.8,9.9 1280.9,109.1 
	1280.9,198.6 "/>
<path class="st1" d="M1343.1,13.9l-66.2,94v86.8h-47v-86.8l-65.9-94h56.1l33.6,49.4l33.3-49.4H1343.1 M1358.5,5.9h-75.8l-2.4,3.5
	L1253.6,49l-26.9-39.6l-2.4-3.5h-75.7l8.8,12.6l64.5,91.9v92.2h63v-92.2l64.7-91.9L1358.5,5.9L1358.5,5.9z"/>
</svg>
