<?xml version="1.0" encoding="utf-8"?>
<!-- Generator: Adobe Illustrator 24.1.0, SVG Export Plug-In . SVG Version: 6.00 Build 0)  -->
<svg version="1.1" id="Layer_1" xmlns="http://www.w3.org/2000/svg" xmlns:xlink="http://www.w3.org/1999/xlink" x="0px" y="0px"
	 viewBox="0 0 483 113" style="enable-background:new 0 0 483 113;" xml:space="preserve">
<style type="text/css">
	.st0{fill:#FFFFFF;}
	.st1{fill-rule:evenodd;clip-rule:evenodd;fill:#FFFFFF;}
</style>
<g>
	<path class="st0" d="M192.6,49.2h-30.3c-0.8,0-1.4,0.6-1.4,1.4v14.8c0,0.8,0.6,1.4,1.4,1.4h11.8v18.4c0,0-2.7,0.9-10,0.9
		c-8.6,0-20.7-3.2-20.7-29.7c0-26.6,12.6-30.1,24.4-30.1c10.2,0,14.6,1.8,17.4,2.7c0.9,0.3,1.7-0.6,1.7-1.4l3.4-14.3
		c0-0.4-0.1-0.8-0.5-1.1c-1.1-0.8-8.1-4.7-25.6-4.7c-20.2,0-40.9,8.6-40.9,49.9c0,41.3,23.7,47.5,43.7,47.5
		c16.6,0,26.6-7.1,26.6-7.1c0.4-0.2,0.5-0.8,0.5-1.1V50.6C194,49.9,193.4,49.2,192.6,49.2z"/>
	<path class="st0" d="M348.6,12.5c0-0.8-0.6-1.4-1.4-1.4h-17c-0.8,0-1.4,0.6-1.4,1.4c0,0,0,32.9,0,32.9h-26.6V12.5
		c0-0.8-0.6-1.4-1.4-1.4h-17c-0.8,0-1.4,0.6-1.4,1.4v89.2c0,0.8,0.6,1.4,1.4,1.4h17c0.8,0,1.4-0.6,1.4-1.4V63.5h26.6
		c0,0,0,38.1,0,38.1c0,0.8,0.6,1.4,1.4,1.4h17.1c0.8,0,1.4-0.6,1.4-1.4V12.5z"/>
	<g>
		<g>
			<path class="st0" d="M224.8,24.2c0-6.1-4.9-11.1-11-11.1c-6.1,0-11,5-11,11.1c0,6.1,4.9,11.1,11,11.1
				C219.9,35.3,224.8,30.3,224.8,24.2z"/>
			<path class="st0" d="M223.6,82.9c0-2.3,0-41.2,0-41.2c0-0.8-0.6-1.4-1.4-1.4h-17c-0.8,0-1.5,0.8-1.5,1.6c0,0,0,49.5,0,59
				c0,1.7,1.1,2.2,2.5,2.2c0,0,7.3,0,15.3,0c1.7,0,2.1-0.8,2.1-2.3C223.6,97.6,223.6,85.3,223.6,82.9z"/>
		</g>
	</g>
	<path class="st0" d="M413.4,40.4h-16.9c-0.8,0-1.4,0.6-1.4,1.4v43.7c0,0-4.3,3.1-10.4,3.1c-6.1,0-7.7-2.8-7.7-8.7
		c0-6,0-38.1,0-38.1c0-0.8-0.6-1.4-1.4-1.4h-17.2c-0.8,0-1.4,0.6-1.4,1.4c0,0,0,23.3,0,41c0,17.7,9.9,22.1,23.5,22.1
		c11.2,0,20.1-6.2,20.1-6.2s0.4,3.2,0.6,3.6c0.2,0.4,0.7,0.8,1.2,0.8l10.9,0c0.8,0,1.4-0.6,1.4-1.4l0-59.9
		C414.8,41,414.1,40.4,413.4,40.4z"/>
	<path class="st0" d="M459.6,38.4c-9.6,0-16.1,4.3-16.1,4.3V12.5c0-0.8-0.6-1.4-1.4-1.4H425c-0.8,0-1.4,0.6-1.4,1.4v89.2
		c0,0.8,0.6,1.4,1.4,1.4c0,0,11.9,0,11.9,0c0.5,0,0.9-0.3,1.2-0.8c0.3-0.5,0.7-4.1,0.7-4.1s7,6.6,20.2,6.6
		c15.5,0,24.4-7.9,24.4-35.4C483.4,42,469.2,38.4,459.6,38.4z M452.9,88.6c-5.9-0.2-9.8-2.8-9.8-2.8V57.6c0,0,3.9-2.4,8.7-2.8
		c6.1-0.5,12,1.3,12,15.8C463.8,85.9,461.1,88.9,452.9,88.6z"/>
	<path class="st0" d="M272.5,40.3h-12.8c0,0,0-16.9,0-16.9c0-0.6-0.3-1-1.1-1h-17.4c-0.7,0-1,0.3-1,0.9v17.5c0,0-8.7,2.1-9.3,2.3
		c-0.6,0.2-1,0.7-1,1.4v11c0,0.8,0.6,1.4,1.4,1.4h8.9c0,0,0,11.5,0,26.4c0,19.6,13.7,21.5,23,21.5c4.2,0,9.3-1.4,10.1-1.7
		c0.5-0.2,0.8-0.7,0.8-1.3l0-12.1c0-0.8-0.7-1.4-1.4-1.4c-0.7,0-2.7,0.3-4.6,0.3c-6.3,0-8.4-2.9-8.4-6.7c0-3.8,0-25.1,0-25.1h12.8
		c0.8,0,1.4-0.6,1.4-1.4V41.7C273.9,40.9,273.3,40.3,272.5,40.3z"/>
</g>
<path class="st1" d="M58.2-0.2c-32,0-57.8,25.9-57.8,57.8c0,25.6,16.6,47.2,39.5,54.9c2.9,0.5,4-1.2,4-2.7c0-1.4-0.1-5.9-0.1-10.8
	c-14.5,2.7-18.3-3.5-19.4-6.8c-0.7-1.7-3.5-6.8-5.9-8.2c-2-1.1-4.9-3.8-0.1-3.8c4.6-0.1,7.8,4.2,8.9,5.9c5.2,8.7,13.5,6.3,16.8,4.8
	c0.5-3.8,2-6.3,3.7-7.7c-12.9-1.4-26.3-6.4-26.3-28.6c0-6.3,2.2-11.5,5.9-15.5c-0.6-1.4-2.6-7.4,0.6-15.3c0,0,4.8-1.5,15.9,5.9
	c4.6-1.3,9.5-2,14.5-2c4.9,0,9.8,0.7,14.5,2c11.1-7.5,15.9-5.9,15.9-5.9c3.2,8,1.2,13.9,0.6,15.3c3.7,4,5.9,9.2,5.9,15.5
	c0,22.2-13.5,27.1-26.4,28.6c2.1,1.8,3.9,5.3,3.9,10.7c0,7.7-0.1,14-0.1,15.9c0,1.5,1.1,3.3,4,2.7c22.8-7.7,39.4-29.4,39.4-54.9
	C116,25.7,90.1-0.2,58.2-0.2z"/>
</svg>
