<?xml version="1.0" standalone="no"?>
<!DOCTYPE svg PUBLIC "-//W3C//DTD SVG 20010904//EN"
 "http://www.w3.org/TR/2001/REC-SVG-20010904/DTD/svg10.dtd">
<svg version="1.0" xmlns="http://www.w3.org/2000/svg"
 width="519.000000pt" height="519.000000pt" viewBox="0 0 519.000000 519.000000"
 preserveAspectRatio="xMidYMid meet">
<metadata>
Created by potrace 1.11, written by Peter Selinger 2001-2013
</metadata>
<g transform="translate(0.000000,519.000000) scale(0.100000,-0.100000)"
fill="#000000" stroke="none">
<path d="M5139 4936 c-2 -2 -21 -7 -42 -10 -21 -3 -102 -19 -180 -35 -78 -16
-159 -32 -179 -35 -21 -3 -57 -10 -80 -15 -24 -6 -59 -13 -78 -16 -49 -8 -56
-15 -165 -150 -54 -66 -116 -140 -140 -165 -23 -25 -102 -119 -175 -210 -74
-91 -162 -200 -197 -242 -35 -43 -63 -80 -63 -83 0 -5 -111 -146 -130 -165 -3
-3 -41 -50 -85 -105 -44 -55 -103 -125 -131 -155 -27 -30 -61 -69 -75 -86 -78
-100 -464 -570 -471 -572 -4 -2 -8 -9 -8 -16 0 -6 -17 -32 -37 -57 -21 -25
-51 -62 -68 -83 -48 -61 -88 -109 -113 -134 -12 -13 -53 -60 -89 -105 -37 -45
-115 -140 -174 -212 -61 -75 -125 -166 -151 -215 -76 -144 -152 -289 -228
-435 -69 -133 -116 -222 -242 -465 -31 -58 -90 -172 -133 -255 -43 -82 -82
-155 -87 -162 -12 -15 -5 -17 177 -48 83 -14 161 -28 175 -31 14 -2 50 -7 80
-10 57 -6 206 -29 250 -39 28 -6 98 -17 118 -18 6 0 12 -3 12 -6 0 -3 15 -5
32 -5 18 1 37 -1 43 -4 5 -4 23 -8 40 -10 40 -4 70 -9 70 -11 0 -1 14 -4 30
-6 35 -4 90 -12 125 -19 14 -3 68 -13 120 -22 123 -21 129 -22 170 -29 44 -7
75 -13 75 -15 0 -1 11 -3 25 -4 31 -4 91 -13 200 -32 216 -38 318 -55 350 -60
19 -2 49 -7 65 -11 17 -3 39 -7 50 -9 11 -2 30 -5 41 -8 12 -2 39 -7 60 -10
35 -6 88 -15 179 -31 17 -3 44 -7 60 -10 17 -3 41 -8 55 -10 14 -3 41 -7 60
-10 19 -3 46 -7 60 -11 14 -3 36 -7 50 -9 25 -3 75 -11 120 -20 14 -3 41 -7
60 -10 19 -2 46 -7 60 -10 14 -3 45 -8 70 -11 25 -3 47 -7 50 -9 3 -2 28 -6
55 -9 l51 -7 0 38 c0 21 4 85 8 143 5 58 10 122 11 143 1 22 8 42 14 47 9 5 8
9 -5 14 -16 6 -15 8 2 28 11 12 13 18 7 14 -8 -4 -13 -1 -13 9 0 9 5 13 11 9
8 -5 9 -2 3 9 -11 20 -5 129 7 121 5 -3 9 0 9 5 0 6 -4 11 -10 11 -5 0 -8 10
-6 22 3 13 5 23 6 23 1 0 2 25 4 55 1 39 6 54 15 52 7 -1 10 2 6 8 -3 6 -11 8
-16 5 -5 -4 -9 -2 -9 4 0 5 5 11 12 13 6 2 12 12 14 21 1 9 -2 15 -7 11 -5 -3
-8 13 -7 35 1 22 4 38 8 36 4 -2 7 2 7 10 0 8 -3 12 -7 10 -4 -2 -6 8 -4 23 1
15 3 27 4 27 0 0 3 42 5 94 3 56 9 97 16 101 8 6 7 9 -2 14 -11 5 -11 7 -1 12
10 5 10 9 1 20 -9 11 -9 18 1 29 7 8 9 15 4 16 -5 0 0 4 11 9 18 8 18 9 2 9
-14 1 -17 9 -15 41 1 31 5 39 17 35 12 -5 11 -2 -2 13 -9 10 -15 21 -13 23 2
2 6 22 7 44 2 22 8 43 14 47 6 5 5 8 -3 8 -7 0 -10 5 -7 10 4 6 11 8 16 5 5
-4 9 -1 9 4 0 6 -8 11 -17 12 -10 0 -13 3 -6 5 8 4 9 13 3 28 -5 14 -4 28 2
37 7 11 8 9 3 -6 -5 -16 -4 -17 6 -8 9 9 9 15 0 26 -15 19 -10 59 9 75 8 7 11
12 5 11 -23 -3 -26 2 -11 17 9 8 16 21 16 27 0 7 -4 6 -11 -3 -8 -12 -9 -8 -7
15 2 17 7 33 13 38 6 4 4 11 -5 17 -8 5 -10 10 -5 10 6 0 9 21 6 51 -2 41 0
50 10 44 11 -6 11 -5 2 5 -13 14 -7 66 11 89 8 11 8 13 -1 7 -17 -9 -18 35 -1
52 8 8 8 15 0 25 -9 10 -9 16 0 25 9 9 9 12 0 12 -6 0 -9 7 -5 16 5 13 7 13
14 2 6 -9 9 -9 9 -1 0 6 -4 15 -10 18 -5 3 -10 14 -10 23 0 15 2 15 11 2 9
-12 10 -11 4 5 -12 34 -14 55 -7 55 4 0 6 20 4 45 -3 33 0 45 9 45 11 0 11 3
-1 10 -9 6 -11 13 -5 18 15 11 18 35 4 26 -9 -5 -10 -2 -4 12 4 10 7 27 7 37
-1 11 4 15 11 10 7 -4 6 0 -2 10 -11 14 -11 17 0 17 9 0 10 3 4 8 -13 9 -19
46 -6 38 5 -4 13 -1 17 5 4 7 3 9 -4 5 -6 -3 -13 -2 -17 4 -3 5 -2 10 3 10 6
0 13 7 16 16 5 14 4 15 -9 4 -13 -11 -14 -10 -9 6 4 10 12 25 18 33 8 11 8 13
-1 7 -9 -5 -13 0 -13 16 0 18 2 20 10 8 6 -9 10 -10 10 -3 0 6 -5 15 -11 19
-8 4 -7 9 2 15 11 7 11 9 1 9 -7 0 -10 5 -7 10 4 6 11 8 16 5 5 -3 6 1 3 9 -3
9 -11 13 -17 9 -6 -4 -7 -1 -1 8 5 8 7 23 6 34 -2 17 -1 17 7 5 7 -9 11 -10
11 -3 0 6 -5 15 -11 18 -6 4 -7 14 -3 24 3 9 6 36 5 60 -1 27 3 47 11 52 10 7
10 9 1 9 -7 0 -13 5 -13 11 0 5 4 8 9 5 5 -4 8 2 6 11 -2 10 -4 18 -5 18 -1 0
-3 8 -5 18 -2 9 1 15 6 11 5 -3 9 -1 9 5 0 5 -6 11 -12 14 -10 3 -10 7 1 20 7
10 10 17 5 17 -5 0 -2 5 6 10 8 5 10 10 3 10 -9 0 -11 17 -3 40 1 3 1 22 0 43
-1 21 4 45 12 54 9 12 9 15 1 9 -9 -5 -13 -1 -13 13 0 10 6 22 13 24 10 4 10
6 0 6 -7 1 -13 6 -13 12 0 5 5 7 10 4 6 -3 10 -1 10 4 0 6 -5 11 -11 11 -5 0
-7 5 -3 12 4 6 6 29 6 51 -1 22 4 47 11 55 9 13 9 14 0 8 -7 -4 -13 -3 -13 3
0 5 6 12 13 14 8 4 8 6 -2 6 -11 1 -10 5 5 17 10 8 14 13 7 10 -6 -4 -14 -2
-18 4 -3 5 -1 10 5 10 7 0 9 8 5 21 -4 13 -3 19 2 16 5 -4 10 0 10 8 0 8 -4
12 -9 9 -10 -7 -10 -1 2 30 6 18 6 26 -1 26 -6 0 -7 5 -3 11 3 6 8 56 10 112
3 55 9 106 15 113 7 8 7 14 -1 19 -5 3 -10 11 -10 16 0 6 6 7 13 3 9 -6 9 -5
0 8 -7 8 -10 18 -6 21 5 6 8 46 12 200 1 36 4 46 14 41 9 -6 9 -4 -1 8 -10 13
-10 17 0 21 7 3 8 6 2 6 -7 1 -8 18 -5 49 4 26 6 62 5 80 0 17 2 32 6 32 3 0
4 16 2 36 -3 24 0 39 9 45 10 6 10 9 2 9 -8 0 -10 12 -7 38 3 20 6 58 6 84 0
31 4 46 11 41 6 -4 7 -1 2 7 -11 17 -7 128 6 151 6 12 5 20 -1 24 -6 4 -8 11
-5 16 6 9 -27 13 -36 5z"/>
<path d="M4390 4799 c-19 -5 -48 -11 -65 -14 -16 -3 -52 -10 -80 -15 -27 -5
-122 -23 -210 -40 -88 -18 -169 -33 -180 -35 -27 -5 -315 -60 -435 -84 -390
-78 -379 -77 -630 -57 -25 2 -90 7 -145 11 -55 3 -127 8 -160 10 -33 3 -100 7
-150 10 -49 3 -112 7 -140 10 -27 2 -95 7 -150 10 -55 3 -122 8 -150 10 -27 3
-90 7 -140 10 -49 3 -121 7 -160 10 -123 9 -198 14 -292 20 l-93 7 31 -69 c17
-37 53 -115 79 -173 47 -105 408 -895 555 -1215 15 -33 40 -87 55 -120 15 -33
37 -82 50 -110 12 -27 70 -153 127 -280 58 -126 120 -261 138 -300 18 -38 43
-94 55 -124 21 -48 25 -52 37 -36 7 10 23 30 35 44 13 14 65 78 117 141 51 63
108 133 126 155 18 22 173 211 345 420 171 209 319 389 328 400 10 11 118 144
241 295 124 151 277 338 341 415 64 77 141 172 172 211 31 39 63 77 70 85 19
20 313 382 322 397 8 13 6 14 -44 1z"/>
<path d="M45 4708 c5 -56 11 -108 22 -173 3 -22 7 -51 8 -65 4 -44 16 -154 20
-180 2 -14 7 -51 10 -83 4 -32 8 -66 10 -75 1 -9 6 -46 9 -82 4 -36 9 -76 11
-90 4 -23 11 -79 20 -173 2 -22 6 -51 9 -65 3 -15 8 -52 11 -82 2 -30 7 -66 9
-80 3 -14 7 -55 11 -92 3 -37 8 -77 10 -90 4 -30 13 -100 20 -163 3 -27 8 -63
10 -80 2 -16 7 -57 10 -90 4 -33 8 -71 11 -85 2 -14 6 -54 9 -90 6 -75 17
-213 20 -250 2 -14 6 -47 10 -75 14 -107 16 -121 20 -159 3 -21 7 -55 9 -75 3
-20 8 -61 11 -91 3 -30 8 -73 11 -95 3 -22 7 -51 9 -65 2 -14 7 -54 10 -90 4
-36 9 -72 10 -80 2 -8 6 -44 10 -80 3 -36 8 -76 10 -90 3 -23 6 -50 20 -160 2
-19 9 -80 15 -135 11 -106 18 -158 24 -190 4 -22 16 -126 21 -184 2 -20 6 -56
9 -81 4 -25 9 -61 11 -80 5 -38 13 -103 20 -160 3 -19 7 -55 10 -80 3 -25 7
-61 10 -80 2 -19 7 -64 11 -100 3 -36 7 -67 9 -70 2 -3 6 -39 10 -80 8 -80 12
-111 18 -116 2 -2 32 14 68 35 109 66 296 171 304 171 9 0 208 111 215 120 3
4 34 23 70 42 197 109 284 160 294 174 6 8 29 49 51 92 39 76 128 244 188 352
57 105 214 395 254 470 120 225 145 271 183 340 82 151 84 110 -15 326 -48
104 -100 219 -115 255 -15 36 -75 169 -133 295 -58 126 -119 258 -135 294 -16
36 -46 101 -67 145 -20 44 -54 118 -75 165 -189 419 -347 768 -437 960 -14 30
-33 73 -43 95 -72 162 -49 147 -230 160 -52 3 -122 8 -155 10 -33 2 -87 6
-120 9 -33 3 -100 8 -150 11 -49 3 -112 7 -140 10 -27 2 -84 6 -125 9 -41 3
-110 8 -152 12 l-77 6 4 -54z"/>
<path d="M4930 1230 c0 -5 5 -10 11 -10 5 0 7 5 4 10 -3 6 -8 10 -11 10 -2 0
-4 -4 -4 -10z"/>
<path d="M4931 1114 c0 -11 3 -14 6 -6 3 7 2 16 -1 19 -3 4 -6 -2 -5 -13z"/>
</g>
</svg>
